<mxfile host="app.diagrams.net" agent="Mozilla/5.0 (Windows NT 10.0; Win64; x64) AppleWebKit/537.36 (KHTML, like Gecko) Chrome/138.0.0.0 Safari/537.36" version="28.0.6">
  <diagram name="Page-1" id="VxuRJ9Qb7TbqNFa8Y2YC">
    <mxGraphModel dx="464" dy="748" grid="1" gridSize="10" guides="1" tooltips="1" connect="1" arrows="1" fold="1" page="1" pageScale="1" pageWidth="850" pageHeight="1100" math="0" shadow="0">
      <root>
        <mxCell id="0" />
        <mxCell id="1" parent="0" />
        <mxCell id="wFh18FvYTqX68EcGKLLu-24" style="edgeStyle=orthogonalEdgeStyle;rounded=0;orthogonalLoop=1;jettySize=auto;html=1;entryX=0.5;entryY=0;entryDx=0;entryDy=0;" edge="1" parent="1" source="wFh18FvYTqX68EcGKLLu-2" target="wFh18FvYTqX68EcGKLLu-3">
          <mxGeometry relative="1" as="geometry" />
        </mxCell>
        <mxCell id="wFh18FvYTqX68EcGKLLu-2" value="Start" style="rounded=0;whiteSpace=wrap;html=1;" vertex="1" parent="1">
          <mxGeometry x="380" y="50" width="120" height="60" as="geometry" />
        </mxCell>
        <mxCell id="wFh18FvYTqX68EcGKLLu-32" style="edgeStyle=orthogonalEdgeStyle;rounded=0;orthogonalLoop=1;jettySize=auto;html=1;exitX=0.5;exitY=1;exitDx=0;exitDy=0;entryX=0.75;entryY=0;entryDx=0;entryDy=0;" edge="1" parent="1" source="wFh18FvYTqX68EcGKLLu-3" target="wFh18FvYTqX68EcGKLLu-6">
          <mxGeometry relative="1" as="geometry" />
        </mxCell>
        <mxCell id="wFh18FvYTqX68EcGKLLu-3" value="Display Welcome message" style="rounded=0;whiteSpace=wrap;html=1;" vertex="1" parent="1">
          <mxGeometry x="380" y="140" width="120" height="60" as="geometry" />
        </mxCell>
        <mxCell id="wFh18FvYTqX68EcGKLLu-28" style="edgeStyle=orthogonalEdgeStyle;rounded=0;orthogonalLoop=1;jettySize=auto;html=1;exitX=0.5;exitY=1;exitDx=0;exitDy=0;entryX=0.5;entryY=0;entryDx=0;entryDy=0;" edge="1" parent="1" source="wFh18FvYTqX68EcGKLLu-9" target="wFh18FvYTqX68EcGKLLu-20">
          <mxGeometry relative="1" as="geometry" />
        </mxCell>
        <mxCell id="wFh18FvYTqX68EcGKLLu-9" value="" style="rounded=0;whiteSpace=wrap;html=1;" vertex="1" parent="1">
          <mxGeometry x="270" y="250" width="350" height="380" as="geometry" />
        </mxCell>
        <mxCell id="wFh18FvYTqX68EcGKLLu-34" style="edgeStyle=orthogonalEdgeStyle;rounded=0;orthogonalLoop=1;jettySize=auto;html=1;exitX=1;exitY=0.5;exitDx=0;exitDy=0;" edge="1" parent="1" source="wFh18FvYTqX68EcGKLLu-8" target="wFh18FvYTqX68EcGKLLu-11">
          <mxGeometry relative="1" as="geometry" />
        </mxCell>
        <mxCell id="wFh18FvYTqX68EcGKLLu-35" style="edgeStyle=orthogonalEdgeStyle;rounded=0;orthogonalLoop=1;jettySize=auto;html=1;entryX=0;entryY=0.5;entryDx=0;entryDy=0;" edge="1" parent="1" source="wFh18FvYTqX68EcGKLLu-8" target="wFh18FvYTqX68EcGKLLu-12">
          <mxGeometry relative="1" as="geometry" />
        </mxCell>
        <mxCell id="wFh18FvYTqX68EcGKLLu-8" value="DECISION: User wants to quit?" style="rounded=1;whiteSpace=wrap;html=1;" vertex="1" parent="1">
          <mxGeometry x="350" y="320" width="120" height="50" as="geometry" />
        </mxCell>
        <mxCell id="wFh18FvYTqX68EcGKLLu-6" value="INPUT: Student name" style="rounded=1;whiteSpace=wrap;html=1;" vertex="1" parent="1">
          <mxGeometry x="350" y="260" width="120" height="50" as="geometry" />
        </mxCell>
        <mxCell id="wFh18FvYTqX68EcGKLLu-5" value="While(continue until user quits) - Get Student Data" style="rounded=1;whiteSpace=wrap;html=1;" vertex="1" parent="1">
          <mxGeometry x="220" y="210" width="120" height="60" as="geometry" />
        </mxCell>
        <mxCell id="wFh18FvYTqX68EcGKLLu-11" value="YES → Exit loop" style="shape=parallelogram;perimeter=parallelogramPerimeter;whiteSpace=wrap;html=1;fixedSize=1;" vertex="1" parent="1">
          <mxGeometry x="500" y="300" width="90" height="30" as="geometry" />
        </mxCell>
        <mxCell id="wFh18FvYTqX68EcGKLLu-12" value="NO → Continue" style="shape=parallelogram;perimeter=parallelogramPerimeter;whiteSpace=wrap;html=1;fixedSize=1;" vertex="1" parent="1">
          <mxGeometry x="485" y="350" width="120" height="30" as="geometry" />
        </mxCell>
        <mxCell id="wFh18FvYTqX68EcGKLLu-15" value="Repeat loop" style="rounded=1;whiteSpace=wrap;html=1;" vertex="1" parent="1">
          <mxGeometry x="350" y="560" width="120" height="50" as="geometry" />
        </mxCell>
        <mxCell id="wFh18FvYTqX68EcGKLLu-16" value="INPUT: Student score (validate 0-100)" style="rounded=1;whiteSpace=wrap;html=1;" vertex="1" parent="1">
          <mxGeometry x="350" y="380" width="120" height="50" as="geometry" />
        </mxCell>
        <mxCell id="wFh18FvYTqX68EcGKLLu-17" value="Calculate letter grade (A-F)" style="rounded=1;whiteSpace=wrap;html=1;" vertex="1" parent="1">
          <mxGeometry x="350" y="440" width="120" height="50" as="geometry" />
        </mxCell>
        <mxCell id="wFh18FvYTqX68EcGKLLu-18" value="Add student to list" style="rounded=1;whiteSpace=wrap;html=1;" vertex="1" parent="1">
          <mxGeometry x="350" y="500" width="120" height="50" as="geometry" />
        </mxCell>
        <mxCell id="wFh18FvYTqX68EcGKLLu-27" style="edgeStyle=orthogonalEdgeStyle;rounded=0;orthogonalLoop=1;jettySize=auto;html=1;exitX=0.5;exitY=1;exitDx=0;exitDy=0;entryX=0.5;entryY=0;entryDx=0;entryDy=0;" edge="1" parent="1" source="wFh18FvYTqX68EcGKLLu-20" target="wFh18FvYTqX68EcGKLLu-21">
          <mxGeometry relative="1" as="geometry" />
        </mxCell>
        <mxCell id="wFh18FvYTqX68EcGKLLu-20" value="Display all students" style="rounded=0;whiteSpace=wrap;html=1;" vertex="1" parent="1">
          <mxGeometry x="385" y="650" width="120" height="60" as="geometry" />
        </mxCell>
        <mxCell id="wFh18FvYTqX68EcGKLLu-29" value="" style="edgeStyle=orthogonalEdgeStyle;rounded=0;orthogonalLoop=1;jettySize=auto;html=1;" edge="1" parent="1" source="wFh18FvYTqX68EcGKLLu-21" target="wFh18FvYTqX68EcGKLLu-23">
          <mxGeometry relative="1" as="geometry" />
        </mxCell>
        <mxCell id="wFh18FvYTqX68EcGKLLu-21" value="Calculate class average" style="rounded=0;whiteSpace=wrap;html=1;" vertex="1" parent="1">
          <mxGeometry x="385" y="730" width="120" height="60" as="geometry" />
        </mxCell>
        <mxCell id="wFh18FvYTqX68EcGKLLu-30" value="" style="edgeStyle=orthogonalEdgeStyle;rounded=0;orthogonalLoop=1;jettySize=auto;html=1;" edge="1" parent="1" source="wFh18FvYTqX68EcGKLLu-22" target="wFh18FvYTqX68EcGKLLu-23">
          <mxGeometry relative="1" as="geometry" />
        </mxCell>
        <mxCell id="wFh18FvYTqX68EcGKLLu-22" value="Save data to grades.txt file" style="rounded=0;whiteSpace=wrap;html=1;" vertex="1" parent="1">
          <mxGeometry x="385" y="810" width="120" height="60" as="geometry" />
        </mxCell>
        <mxCell id="wFh18FvYTqX68EcGKLLu-23" value="End" style="rhombus;whiteSpace=wrap;html=1;" vertex="1" parent="1">
          <mxGeometry x="380" y="890" width="130" height="120" as="geometry" />
        </mxCell>
      </root>
    </mxGraphModel>
  </diagram>
</mxfile>
